<svg width="70" height="70" viewBox="0 0 70 70" fill="none" xmlns="http://www.w3.org/2000/svg">
<rect x="39.5492" y="16.8687" width="23.4021" height="37.6104" rx="3.52423" transform="rotate(25 39.5492 16.8687)" fill="#ECE6FE"/>
<rect x="21.6097" y="13.3931" width="23.4021" height="37.6104" rx="3.52423" fill="#CCC3FC"/>
<rect x="10.3644" y="26.1455" width="23.4021" height="37.6104" rx="3.52423" transform="rotate(-25 10.3644 26.1455)" fill="#7C71FC"/>
<path d="M24.9039 41.609C24.0114 41.6277 23.4024 40.3258 23.9836 39.6483C24.6836 38.8324 25.3576 37.8974 25.6804 37.0292C25.9915 36.1926 26.0553 34.9845 26.0241 33.8614C25.9997 32.9841 27.2262 32.3957 27.8911 32.9686C28.7529 33.7112 29.7394 34.4405 30.5777 34.7456C31.4165 35.0509 32.642 35.1263 33.7802 35.1112C34.6576 35.0996 35.2196 36.3388 34.6374 36.9953C33.8828 37.8461 33.1411 38.8306 32.8259 39.6968C32.5282 40.5147 32.454 41.6579 32.4728 42.74C32.4884 43.6325 31.1915 44.2316 30.5207 43.6426C29.7115 42.932 28.7953 42.2545 27.9784 41.9572C27.1544 41.6573 25.9974 41.5861 24.9039 41.609Z" fill="white"/>
</svg>
