<svg width="37" height="36" viewBox="0 0 37 36" fill="none" xmlns="http://www.w3.org/2000/svg">
<path d="M19.2326 11.2161C18.9526 11.4931 18.3966 11.4931 18.1176 11.2161L13.1006 6.23006C12.8206 5.95406 12.8206 5.40006 13.1006 5.12306L18.1176 0.278063C18.3976 0.0010625 18.9536 0.0010625 19.2326 0.278063L24.2496 5.26306C24.5266 5.53906 24.5266 6.09306 24.2496 6.37006L19.2316 11.2151L19.2326 11.2161Z" fill="url(#paint0_linear_1347_7454)"/>
<path d="M19.2326 35.7242C18.9526 36.0012 18.3966 36.0012 18.1176 35.7242L13.1006 30.7392C12.8206 30.4632 12.8206 29.9092 13.1006 29.6322L18.1176 24.6482C18.3976 24.3712 18.9536 24.3712 19.2326 24.6482L24.2496 29.6332C24.5266 29.9112 24.5266 30.4652 24.2496 30.7412L19.2316 35.7262L19.2326 35.7242Z" fill="url(#paint1_linear_1347_7454)"/>
<path d="M31.635 23.4C31.355 23.678 30.799 23.678 30.52 23.4L25.503 18.416C25.223 18.139 25.223 17.586 25.503 17.309L30.52 12.324C30.8 12.047 31.356 12.047 31.635 12.324L36.652 17.309C36.932 17.586 36.932 18.139 36.652 18.416L31.635 23.4Z" fill="url(#paint2_linear_1347_7454)"/>
<path d="M12.4037 31.1551C12.4037 30.7391 12.1237 30.6011 11.8467 30.8781L9.75667 33.0931C9.47667 33.3701 9.47667 33.7861 9.89667 34.0631L11.8467 34.8931C12.2647 35.0331 12.5427 34.8931 12.5427 34.4781V31.1551H12.4027H12.4037Z" fill="url(#paint3_linear_1347_7454)"/>
<path d="M27.4546 34.0629C27.8726 33.9229 27.8726 33.5089 27.5946 33.0929L25.3646 30.8779C25.0846 30.6009 24.8066 30.7379 24.8066 31.1549V34.4779C24.8066 34.8929 25.0866 35.1699 25.5036 34.8929L27.4546 34.0629Z" fill="url(#paint4_linear_1347_7454)"/>
<path d="M30.9386 24.9242C30.9386 24.5092 30.5206 24.0942 30.1026 24.0942H25.6426C25.2246 24.0942 24.8066 24.5092 24.8066 24.9242V29.3542C24.8066 29.7702 25.2246 30.1862 25.6426 30.1862H30.1026C30.5206 30.1862 30.9386 29.7702 30.9386 29.3562V24.9242Z" fill="url(#paint5_linear_1347_7454)"/>
<path d="M34.8399 9.27821C34.6999 8.86321 34.2829 8.86321 33.8649 9.13821L31.6349 11.3552C31.3549 11.6322 31.4949 11.9092 31.9149 11.9092H35.2579C35.6759 11.9092 35.9549 11.6322 35.6759 11.2162L34.8399 9.27821Z" fill="url(#paint6_linear_1347_7454)"/>
<path d="M27.5936 2.90922C27.8736 2.49322 27.8736 2.07922 27.4536 1.93922L25.5036 1.10922C25.0856 0.969219 24.8066 1.10922 24.8066 1.52422V4.84722C24.8066 5.26322 25.0866 5.40122 25.3646 5.12422L27.5936 2.90922Z" fill="url(#paint7_linear_1347_7454)"/>
<path d="M3.48451 9.13895C3.06651 8.86295 2.6485 8.86295 2.5085 9.27895L1.53351 11.079C1.39351 11.493 1.67351 11.769 2.09051 11.769H5.43551C5.85351 11.769 5.99351 11.493 5.71551 11.216L3.48451 9.13895Z" fill="url(#paint8_linear_1347_7454)"/>
<path d="M12.4031 6.64689C12.4031 6.23189 11.9851 5.81689 11.5671 5.81689H7.24713C6.82913 5.81689 6.41113 6.23189 6.41113 6.64689V11.0769C6.41113 11.4929 6.83113 11.9089 7.24813 11.9089H11.7081C12.1251 11.9089 12.5431 11.4929 12.5431 11.0789V6.64589L12.4031 6.64689Z" fill="url(#paint9_linear_1347_7454)"/>
<path d="M12.4035 1.52407C12.4035 1.10907 12.1235 0.83207 11.7065 1.10907L9.89652 1.93907C9.47652 2.07907 9.33652 2.49307 9.75652 2.90907L11.9865 5.12407C12.2645 5.40107 12.5425 5.26407 12.5425 4.84707V1.52407H12.4025H12.4035Z" fill="url(#paint10_linear_1347_7454)"/>
<path d="M35.6765 24.9239C35.8165 24.5089 35.6765 24.2319 35.2585 24.2319H31.9145C31.4965 24.2319 31.3565 24.5099 31.6345 24.7869L33.8655 27.0009C34.1455 27.2779 34.5625 27.2779 34.8415 26.8629L35.6775 24.9229L35.6765 24.9239Z" fill="url(#paint11_linear_1347_7454)"/>
<path d="M12.4031 24.9242C12.4031 24.5092 11.9851 24.0942 11.5671 24.0942H7.24713C6.82913 24.0942 6.41113 24.5092 6.41113 24.9242V29.3542C6.41113 29.7702 6.83113 30.1862 7.24813 30.1862H11.7081C12.1251 30.1862 12.5431 29.7702 12.5431 29.3562V24.9242H12.4031Z" fill="url(#paint12_linear_1347_7454)"/>
<path d="M5.57443 24.6473C5.85443 24.3703 5.71443 24.0933 5.29643 24.0933H2.09043C1.67243 24.0933 1.39443 24.3703 1.67243 24.7863L2.50843 26.7243C2.64843 27.1393 3.06643 27.1393 3.48443 26.8643L5.57443 24.6473Z" fill="url(#paint13_linear_1347_7454)"/>
<path d="M30.9386 11.0779C30.9386 11.4929 30.5206 11.9079 30.1026 11.9079H25.6426C25.2246 11.9079 24.8066 11.4929 24.8066 11.0779V6.64792C24.8066 6.23192 25.2246 5.81592 25.6426 5.81592H30.1026C30.5206 5.81592 30.9386 6.23192 30.9386 6.64592V11.0779Z" fill="url(#paint14_linear_1347_7454)"/>
<path d="M6.8303 23.4001C6.5503 23.6781 5.9933 23.6781 5.7143 23.4001L0.697305 18.4171C0.417305 18.1401 0.417305 17.5871 0.697305 17.3101L5.7143 12.4641C5.9943 12.1871 6.5503 12.1871 6.8293 12.4641L11.8453 17.4481C12.1233 17.7251 12.1233 18.2781 11.8453 18.5561L6.8303 23.4001Z" fill="url(#paint15_linear_1347_7454)"/>
<defs>
<linearGradient id="paint0_linear_1347_7454" x1="-27.2112" y1="-48.8179" x2="2399.87" y2="2454" gradientUnits="userSpaceOnUse">
<stop stop-color="#00B388"/>
<stop offset="0.1316" stop-color="#00B097"/>
<stop offset="0.5116" stop-color="#00A9BF"/>
<stop offset="0.8143" stop-color="#00A5D7"/>
<stop offset="1" stop-color="#00A3E0"/>
</linearGradient>
<linearGradient id="paint1_linear_1347_7454" x1="-1264.37" y1="-1232.1" x2="1193.14" y2="1241.5" gradientUnits="userSpaceOnUse">
<stop stop-color="#00B388"/>
<stop offset="0.1316" stop-color="#00B097"/>
<stop offset="0.5116" stop-color="#00A9BF"/>
<stop offset="0.8143" stop-color="#00A5D7"/>
<stop offset="1" stop-color="#00A3E0"/>
</linearGradient>
<linearGradient id="paint2_linear_1347_7454" x1="-1254.87" y1="-1241.88" x2="1202.79" y2="1232.2" gradientUnits="userSpaceOnUse">
<stop stop-color="#00B388"/>
<stop offset="0.1316" stop-color="#00B097"/>
<stop offset="0.5116" stop-color="#00A9BF"/>
<stop offset="0.8143" stop-color="#00A5D7"/>
<stop offset="1" stop-color="#00A3E0"/>
</linearGradient>
<linearGradient id="paint3_linear_1347_7454" x1="-1421.62" y1="-1371.66" x2="1541.24" y2="103.44" gradientUnits="userSpaceOnUse">
<stop stop-color="#00B388"/>
<stop offset="0.1316" stop-color="#00B097"/>
<stop offset="0.5116" stop-color="#00A9BF"/>
<stop offset="0.8143" stop-color="#00A5D7"/>
<stop offset="1" stop-color="#00A3E0"/>
</linearGradient>
<linearGradient id="paint4_linear_1347_7454" x1="-2247.7" y1="-2050.67" x2="720.432" y2="-613.502" gradientUnits="userSpaceOnUse">
<stop stop-color="#00B388"/>
<stop offset="0.1316" stop-color="#00B097"/>
<stop offset="0.5116" stop-color="#00A9BF"/>
<stop offset="0.8143" stop-color="#00A5D7"/>
<stop offset="1" stop-color="#00A3E0"/>
</linearGradient>
<linearGradient id="paint5_linear_1347_7454" x1="-1824.34" y1="-1813.5" x2="633.216" y2="660.191" gradientUnits="userSpaceOnUse">
<stop stop-color="#00B388"/>
<stop offset="0.1316" stop-color="#00B097"/>
<stop offset="0.5116" stop-color="#00A9BF"/>
<stop offset="0.8143" stop-color="#00A5D7"/>
<stop offset="1" stop-color="#00A3E0"/>
</linearGradient>
<linearGradient id="paint6_linear_1347_7454" x1="-1379.83" y1="-1413.24" x2="36.4779" y2="1550.08" gradientUnits="userSpaceOnUse">
<stop stop-color="#00B388"/>
<stop offset="0.1316" stop-color="#00B097"/>
<stop offset="0.5116" stop-color="#00A9BF"/>
<stop offset="0.8143" stop-color="#00A5D7"/>
<stop offset="1" stop-color="#00A3E0"/>
</linearGradient>
<linearGradient id="paint7_linear_1347_7454" x1="-718.475" y1="-631.928" x2="2244.9" y2="843.913" gradientUnits="userSpaceOnUse">
<stop stop-color="#00B388"/>
<stop offset="0.1316" stop-color="#00B097"/>
<stop offset="0.5116" stop-color="#00A9BF"/>
<stop offset="0.8143" stop-color="#00A5D7"/>
<stop offset="1" stop-color="#00A3E0"/>
</linearGradient>
<linearGradient id="paint8_linear_1347_7454" x1="59.3165" y1="107.198" x2="1311.61" y2="3078.43" gradientUnits="userSpaceOnUse">
<stop stop-color="#00B388"/>
<stop offset="0.1316" stop-color="#00B097"/>
<stop offset="0.5116" stop-color="#00A9BF"/>
<stop offset="0.8143" stop-color="#00A5D7"/>
<stop offset="1" stop-color="#00A3E0"/>
</linearGradient>
<linearGradient id="paint9_linear_1347_7454" x1="-3.82933" y1="-3.50384" x2="2453.76" y2="2470.25" gradientUnits="userSpaceOnUse">
<stop stop-color="#00B388"/>
<stop offset="0.1316" stop-color="#00B097"/>
<stop offset="0.5116" stop-color="#00A9BF"/>
<stop offset="0.8143" stop-color="#00A5D7"/>
<stop offset="1" stop-color="#00A3E0"/>
</linearGradient>
<linearGradient id="paint10_linear_1347_7454" x1="113.232" y1="53.1293" x2="3074.05" y2="1543.14" gradientUnits="userSpaceOnUse">
<stop stop-color="#00B388"/>
<stop offset="0.1316" stop-color="#00B097"/>
<stop offset="0.5116" stop-color="#00A9BF"/>
<stop offset="0.8143" stop-color="#00A5D7"/>
<stop offset="1" stop-color="#00A3E0"/>
</linearGradient>
<linearGradient id="paint11_linear_1347_7454" x1="-2062.39" y1="-2247.52" x2="-608.3" y2="710.801" gradientUnits="userSpaceOnUse">
<stop stop-color="#00B388"/>
<stop offset="0.1316" stop-color="#00B097"/>
<stop offset="0.5116" stop-color="#00A9BF"/>
<stop offset="0.8143" stop-color="#00A5D7"/>
<stop offset="1" stop-color="#00A3E0"/>
</linearGradient>
<linearGradient id="paint12_linear_1347_7454" x1="-925.328" y1="-897.363" x2="1532.27" y2="1576.36" gradientUnits="userSpaceOnUse">
<stop stop-color="#00B388"/>
<stop offset="0.1316" stop-color="#00B097"/>
<stop offset="0.5116" stop-color="#00A9BF"/>
<stop offset="0.8143" stop-color="#00A5D7"/>
<stop offset="1" stop-color="#00A3E0"/>
</linearGradient>
<linearGradient id="paint13_linear_1347_7454" x1="-629.907" y1="-713.875" x2="876.9" y2="2237.71" gradientUnits="userSpaceOnUse">
<stop stop-color="#00B388"/>
<stop offset="0.1316" stop-color="#00B097"/>
<stop offset="0.5116" stop-color="#00A9BF"/>
<stop offset="0.8143" stop-color="#00A5D7"/>
<stop offset="1" stop-color="#00A3E0"/>
</linearGradient>
<linearGradient id="paint14_linear_1347_7454" x1="-902.867" y1="-919.656" x2="1554.69" y2="1554.04" gradientUnits="userSpaceOnUse">
<stop stop-color="#00B388"/>
<stop offset="0.1316" stop-color="#00B097"/>
<stop offset="0.5116" stop-color="#00A9BF"/>
<stop offset="0.8143" stop-color="#00A5D7"/>
<stop offset="1" stop-color="#00A3E0"/>
</linearGradient>
<linearGradient id="paint15_linear_1347_7454" x1="-35.3805" y1="-26.9883" x2="2391.43" y2="2475.77" gradientUnits="userSpaceOnUse">
<stop stop-color="#00B388"/>
<stop offset="0.1316" stop-color="#00B097"/>
<stop offset="0.5116" stop-color="#00A9BF"/>
<stop offset="0.8143" stop-color="#00A5D7"/>
<stop offset="1" stop-color="#00A3E0"/>
</linearGradient>
</defs>
</svg>
