<svg width="49" height="49" viewBox="0 0 49 49" fill="none" xmlns="http://www.w3.org/2000/svg">
<rect x="0.0292969" width="48.2353" height="48.2353" rx="24.1176" fill="#0A0C0E"/>
<path fill-rule="evenodd" clip-rule="evenodd" d="M14.7188 22.0932C14.7275 22.1505 14.7692 22.1975 14.8256 22.2134C14.8819 22.2294 14.9425 22.2113 14.9805 22.1672C16.8499 18.507 20.5513 15.2165 23.9163 14.2552C23.991 14.2182 23.991 14.0703 23.8789 14.0703H15.1674C14.9805 14.0703 14.7188 14.2182 14.7188 14.4031V22.0932Z" fill="white"/>
<path fill-rule="evenodd" clip-rule="evenodd" d="M14.8298 33.961H22.1205C22.2777 33.9637 22.4229 33.8776 22.4944 33.7391L33.4491 14.5507C33.5251 14.458 33.5374 14.3293 33.4801 14.2242C33.4229 14.1191 33.3075 14.0583 33.1874 14.0701H26.2332C26.1034 14.0608 25.9825 14.1356 25.9341 14.2549L14.7176 33.776C14.7063 33.8153 14.7119 33.8575 14.7332 33.8925C14.7545 33.9275 14.7894 33.9522 14.8298 33.961Z" fill="white"/>
<path fill-rule="evenodd" clip-rule="evenodd" d="M33.5611 25.975C33.5818 25.9138 33.5483 25.8476 33.4863 25.8271C33.4244 25.8067 33.3574 25.8398 33.3368 25.9011C31.4674 29.5613 27.7285 32.8518 24.401 33.813C24.3262 33.85 24.3262 33.9979 24.4384 33.9979H33.1498C33.3368 33.9979 33.5611 33.85 33.5611 33.6652V25.975Z" fill="white"/>
</svg>
