<svg width="48" height="48" viewBox="0 0 48 48" fill="none" xmlns="http://www.w3.org/2000/svg">
<mask id="mask0_1197_44034" style="mask-type:alpha" maskUnits="userSpaceOnUse" x="0" y="0" width="48" height="48">
<g clip-path="url(#clip0_1197_44034)">
<path d="M24.7673 14.7039C24.3713 15.0987 23.7277 15.0987 23.3317 14.7039L16.797 8.24013C16.401 7.84539 16.401 7.20395 16.797 6.80921L23.2822 0.296053C23.6782 -0.0986842 24.3218 -0.0986842 24.7178 0.296053L31.203 6.75987C31.599 7.15461 31.599 7.79605 31.203 8.19079L24.7673 14.7039Z" fill="url(#paint0_linear_1197_44034)"/>
<path d="M24.7401 47.703C24.3454 48.099 23.7039 48.099 23.3092 47.703L16.7961 41.2178C16.4013 40.8218 16.4013 40.1782 16.7961 39.7822L23.3092 33.297C23.7039 32.901 24.3454 32.901 24.7401 33.297L31.2039 39.7822C31.5987 40.1782 31.5987 40.8218 31.2039 41.2178L24.7401 47.703Z" fill="url(#paint1_linear_1197_44034)"/>
<path d="M41.2401 31.2039C40.8454 31.5987 40.2039 31.5987 39.8092 31.2039L33.2961 24.6908C32.9013 24.2961 32.9013 23.6546 33.2961 23.2599L39.8092 16.7961C40.2039 16.4013 40.8454 16.4013 41.2401 16.7961L47.7039 23.2599C48.0987 23.6546 48.0987 24.2961 47.7039 24.6908L41.2401 31.2039Z" fill="url(#paint2_linear_1197_44034)"/>
<path d="M16.5 41.0642C16.5 40.4742 16.0958 40.3134 15.6339 40.7424L12.285 43.853C11.8231 44.282 11.9386 44.872 12.516 45.1401L15.403 46.4273C16.0381 46.6418 16.5 46.3736 16.5 45.7301V41.0642Z" fill="url(#paint3_linear_1197_44034)"/>
<path d="M36.984 45.1036C37.5614 44.8376 37.6769 44.2523 37.215 43.8266L33.8661 40.7405C33.4042 40.3148 33 40.4745 33 41.0597V45.7421C33 46.3274 33.5197 46.6467 34.097 46.4338L36.984 45.1036Z" fill="url(#paint4_linear_1197_44034)"/>
<path d="M38.9534 32.4844C38.9534 31.9688 38.5342 31.5 37.9752 31.5H32.4783C31.9658 31.5 31.5 31.9219 31.5 32.4844V38.0156C31.5 38.5313 31.9193 39 32.4783 39H38.0217C38.5342 39 39 38.5781 39 38.0156V32.4844H38.9534Z" fill="url(#paint5_linear_1197_44034)"/>
<path d="M45.1448 12.516C44.8764 11.9386 44.2859 11.8231 43.8564 12.285L40.7426 15.6339C40.3132 16.0958 40.4742 16.5 41.0648 16.5H45.7353C46.3259 16.5 46.648 15.9803 46.4333 15.403L45.1448 12.516Z" fill="url(#paint6_linear_1197_44034)"/>
<path d="M37.215 4.12356C37.6769 3.69831 37.5614 3.1136 36.984 2.84782L34.097 1.57209C33.4619 1.35946 33 1.62524 33 2.26311V6.94081C33 7.52552 33.4042 7.68499 33.8661 7.25975L37.215 4.12356Z" fill="url(#paint7_linear_1197_44034)"/>
<path d="M4.12356 12.285C3.69831 11.8231 3.1136 11.9386 2.84782 12.516L1.57209 15.403C1.35946 16.0381 1.62524 16.5 2.26311 16.5H6.94081C7.52552 16.5 7.68499 16.0958 7.25975 15.6339L4.12356 12.285Z" fill="url(#paint8_linear_1197_44034)"/>
<path d="M15 8.48438C15 7.96875 14.5807 7.5 14.0217 7.5H8.47826C7.96584 7.5 7.5 7.92188 7.5 8.48438V14.0156C7.5 14.5312 7.91925 15 8.47826 15H14.0217C14.5342 15 15 14.5781 15 14.0156V8.48438Z" fill="url(#paint9_linear_1197_44034)"/>
<path d="M16.5 2.26465C16.5 1.67412 15.9803 1.35201 15.403 1.56675L12.516 2.85519C11.9386 3.12361 11.8231 3.71415 12.285 4.14363L15.6339 7.25735C16.0958 7.68683 16.5 7.52578 16.5 6.93524V2.26465Z" fill="url(#paint10_linear_1197_44034)"/>
<path d="M46.4279 32.597C46.6405 31.9619 46.3748 31.5 45.7369 31.5H41.0592C40.4745 31.5 40.315 31.9042 40.7403 32.3661L43.8233 35.715C44.2485 36.1769 44.8332 36.0614 45.099 35.484L46.4279 32.597Z" fill="url(#paint11_linear_1197_44034)"/>
<path d="M15 32.4844C15 31.9688 14.5807 31.5 14.0217 31.5H8.47826C7.96584 31.5 7.5 31.9219 7.5 32.4844V38.0156C7.5 38.5313 7.91925 39 8.47826 39H14.0217C14.5342 39 15 38.5781 15 38.0156V32.4844Z" fill="url(#paint12_linear_1197_44034)"/>
<path d="M7.25951 32.3661C7.68518 31.9042 7.52555 31.5 6.94025 31.5H2.25787C1.67257 31.5 1.35332 32.0197 1.56616 32.597L2.84317 35.484C3.10921 36.0614 3.69451 36.1769 4.12018 35.715L7.25951 32.3661Z" fill="url(#paint13_linear_1197_44034)"/>
<path d="M38.9534 14.0217C38.9534 14.5342 38.5342 15 37.9752 15H32.4783C31.9658 15 31.5 14.5807 31.5 14.0217V8.47826C31.5 7.96584 31.9193 7.5 32.4783 7.5H38.0217C38.5342 7.5 39 7.91925 39 8.47826V14.0217H38.9534Z" fill="url(#paint14_linear_1197_44034)"/>
<path d="M8.24013 31.2039C7.84539 31.5987 7.20395 31.5987 6.80921 31.2039L0.296053 24.6908C-0.0986842 24.2961 -0.0986842 23.6546 0.296053 23.2599L6.80921 16.7961C7.20395 16.4013 7.84539 16.4013 8.24013 16.7961L14.7039 23.2599C15.0987 23.6546 15.0987 24.2961 14.7039 24.6908L8.24013 31.2039Z" fill="#00B280"/>
</g>
</mask>
<g mask="url(#mask0_1197_44034)">
<rect x="-3" y="-11" width="58" height="72" fill="white"/>
</g>
<defs>
<linearGradient id="paint0_linear_1197_44034" x1="15.9169" y1="-0.579078" x2="48.38" y2="31.7772" gradientUnits="userSpaceOnUse">
<stop stop-color="#00B280"/>
<stop offset="0.1865" stop-color="#07AF97"/>
<stop offset="0.5425" stop-color="#13ABBF"/>
<stop offset="0.8261" stop-color="#1BA9D7"/>
<stop offset="1" stop-color="#1DA8E0"/>
</linearGradient>
<linearGradient id="paint1_linear_1197_44034" x1="-0.263485" y1="16.1299" x2="32.0928" y2="48.593" gradientUnits="userSpaceOnUse">
<stop stop-color="#00B280"/>
<stop offset="0.1865" stop-color="#07AF97"/>
<stop offset="0.5425" stop-color="#13ABBF"/>
<stop offset="0.8261" stop-color="#1BA9D7"/>
<stop offset="1" stop-color="#1DA8E0"/>
</linearGradient>
<linearGradient id="paint2_linear_1197_44034" x1="16.2409" y1="-0.269555" x2="48.5971" y2="32.0867" gradientUnits="userSpaceOnUse">
<stop stop-color="#00B280"/>
<stop offset="0.1865" stop-color="#07AF97"/>
<stop offset="0.5425" stop-color="#13ABBF"/>
<stop offset="0.8261" stop-color="#1BA9D7"/>
<stop offset="1" stop-color="#1DA8E0"/>
</linearGradient>
<linearGradient id="paint3_linear_1197_44034" x1="0.678118" y1="20.3802" x2="29.6482" y2="47.2889" gradientUnits="userSpaceOnUse">
<stop stop-color="#00B280"/>
<stop offset="0.1865" stop-color="#07AF97"/>
<stop offset="0.5425" stop-color="#13ABBF"/>
<stop offset="0.8261" stop-color="#1BA9D7"/>
<stop offset="1" stop-color="#1DA8E0"/>
</linearGradient>
<linearGradient id="paint4_linear_1197_44034" x1="14.3464" y1="10.8442" x2="43.2514" y2="37.4813" gradientUnits="userSpaceOnUse">
<stop stop-color="#00B280"/>
<stop offset="0.1865" stop-color="#07AF97"/>
<stop offset="0.5425" stop-color="#13ABBF"/>
<stop offset="0.8261" stop-color="#1BA9D7"/>
<stop offset="1" stop-color="#1DA8E0"/>
</linearGradient>
<linearGradient id="paint5_linear_1197_44034" x1="8.60562" y1="8.4352" x2="39.1532" y2="39.1737" gradientUnits="userSpaceOnUse">
<stop stop-color="#00B280"/>
<stop offset="0.1865" stop-color="#07AF97"/>
<stop offset="0.5425" stop-color="#13ABBF"/>
<stop offset="0.8261" stop-color="#1BA9D7"/>
<stop offset="1" stop-color="#1DA8E0"/>
</linearGradient>
<linearGradient id="paint6_linear_1197_44034" x1="20.2774" y1="0.695559" x2="47.2209" y2="29.674" gradientUnits="userSpaceOnUse">
<stop stop-color="#00B280"/>
<stop offset="0.1865" stop-color="#07AF97"/>
<stop offset="0.5425" stop-color="#13ABBF"/>
<stop offset="0.8261" stop-color="#1BA9D7"/>
<stop offset="1" stop-color="#1DA8E0"/>
</linearGradient>
<linearGradient id="paint7_linear_1197_44034" x1="27.5123" y1="-7.42404" x2="56.4091" y2="19.1788" gradientUnits="userSpaceOnUse">
<stop stop-color="#00B280"/>
<stop offset="0.1865" stop-color="#07AF97"/>
<stop offset="0.5425" stop-color="#13ABBF"/>
<stop offset="0.8261" stop-color="#1BA9D7"/>
<stop offset="1" stop-color="#1DA8E0"/>
</linearGradient>
<linearGradient id="paint8_linear_1197_44034" x1="2.21671" y1="13.8709" x2="28.8195" y2="42.7677" gradientUnits="userSpaceOnUse">
<stop stop-color="#00B280"/>
<stop offset="0.1865" stop-color="#07AF97"/>
<stop offset="0.5425" stop-color="#13ABBF"/>
<stop offset="0.8261" stop-color="#1BA9D7"/>
<stop offset="1" stop-color="#1DA8E0"/>
</linearGradient>
<linearGradient id="paint9_linear_1197_44034" x1="7.3766" y1="7.3657" x2="37.9241" y2="38.1042" gradientUnits="userSpaceOnUse">
<stop stop-color="#00B280"/>
<stop offset="0.1865" stop-color="#07AF97"/>
<stop offset="0.5425" stop-color="#13ABBF"/>
<stop offset="0.8261" stop-color="#1BA9D7"/>
<stop offset="1" stop-color="#1DA8E0"/>
</linearGradient>
<linearGradient id="paint10_linear_1197_44034" x1="13.8441" y1="2.26208" x2="42.8224" y2="29.2056" gradientUnits="userSpaceOnUse">
<stop stop-color="#00B280"/>
<stop offset="0.1865" stop-color="#07AF97"/>
<stop offset="0.5425" stop-color="#13ABBF"/>
<stop offset="0.8261" stop-color="#1BA9D7"/>
<stop offset="1" stop-color="#1DA8E0"/>
</linearGradient>
<linearGradient id="paint11_linear_1197_44034" x1="10.9072" y1="12.8585" x2="37.51" y2="41.7553" gradientUnits="userSpaceOnUse">
<stop offset="1" stop-color="#1DA8E0"/>
</linearGradient>
<linearGradient id="paint12_linear_1197_44034" x1="-4.00253" y1="19.8941" x2="26.545" y2="50.6325" gradientUnits="userSpaceOnUse">
<stop stop-color="#00B280"/>
<stop offset="0.1865" stop-color="#07AF97"/>
<stop offset="0.5425" stop-color="#13ABBF"/>
<stop offset="0.8261" stop-color="#1BA9D7"/>
<stop offset="1" stop-color="#1DA8E0"/>
</linearGradient>
<linearGradient id="paint13_linear_1197_44034" x1="-7.36777" y1="26.0338" x2="19.2692" y2="54.9388" gradientUnits="userSpaceOnUse">
<stop stop-color="#00B280"/>
<stop offset="0.1865" stop-color="#07AF97"/>
<stop offset="0.5425" stop-color="#13ABBF"/>
<stop offset="0.8261" stop-color="#1BA9D7"/>
<stop offset="1" stop-color="#1DA8E0"/>
</linearGradient>
<linearGradient id="paint14_linear_1197_44034" x1="19.9847" y1="-4.02112" x2="50.5323" y2="26.5264" gradientUnits="userSpaceOnUse">
<stop stop-color="#00B280"/>
<stop offset="0.1865" stop-color="#07AF97"/>
<stop offset="0.5425" stop-color="#13ABBF"/>
<stop offset="0.8261" stop-color="#1BA9D7"/>
<stop offset="1" stop-color="#1DA8E0"/>
</linearGradient>
<clipPath id="clip0_1197_44034">
<rect width="48" height="48" fill="white"/>
</clipPath>
</defs>
</svg>
